name analog
datacolumns 19
datarows 16
range 0.297 0.3045
endheader
time	ground_force_vx	ground_force_vy	ground_force_vz	ground_force_px	ground_force_py	ground_force_pz	l_ground_force_vx	l_ground_force_vy	l_ground_force_vz	l_ground_force_px	l_ground_force_py	l_ground_force_pz	ground_torque_x	ground_torque_y	ground_torque_z	l_ground_torque_x	l_ground_torque_y	l_ground_torque_z
0.297	-0.0	-0.0	-0.0	2.860064744949341	23.32090950012207	-344.8907775878906	7.457067966461182	-27.354248046875	-421.3838195800781	-35.43606948852539	16.01988410949707	75.846923828125	-0.0	-0.0	-0.0	86442.265625	-37063.39453125	-6307.9423828125
0.2975	-0.0	-0.0	-0.0	2.7392635345458984	22.86457252502441	-343.1455078125	7.634414196014404	-27.291400909423828	-422.4526672363281	-35.16236114501953	16.220596313476562	74.91812133789062	-0.0	-0.0	-0.0	87041.625	-37368.015625	-6192.64208984375
0.298	-0.0	-0.0	-0.0	2.2250657081604004	23.074390411376957	-344.4756164550781	7.5926194190979	-27.109548568725582	-422.5352478027344	-35.125267028808594	16.05184555053711	74.89811706542969	-0.0	-0.0	-0.0	86732.5703125	-37674.91015625	-6206.51806640625
0.2985	-0.0	-0.0	-0.0	2.151294231414795	23.02741813659668	-343.5181884765625	7.613659381866455	-27.1147575378418	-422.45318603515625	-35.636573791503906	16.29974365234375	76.69295501708984	-0.0	-0.0	-0.0	86763.859375	-37629.29296875	-6243.16650390625
0.299	-0.0	-0.0	-0.0	3.1594057083129883	23.173904418945312	-343.1710510253906	7.764733791351318	-27.151330947875977	-423.87005615234375	-35.4106330871582	16.009592056274414	74.60660552978516	-0.0	-0.0	-0.0	87104.53125	-37979.65625	-6230.82275390625
0.2995	-0.0	-0.0	-0.0	3.404958724975586	22.911495208740234	-342.4178161621094	7.670971870422363	-27.234739303588867	-423.6263122558594	-35.1473503112793	16.01953887939453	76.546142578125	-0.0	-0.0	-0.0	87202.3125	-37855.3125	-6196.2080078125
0.3	-0.0	-0.0	-0.0	4.098773002624512	22.50787925720215	-343.182373046875	7.143691539764404	-27.254627227783203	-424.034912109375	-35.1668586730957	16.241952896118164	75.49268341064453	-0.0	-0.0	-0.0	87110.1640625	-38151.10546875	-6184.31298828125
0.3005	-0.0	-0.0	-0.0	5.112683296203613	21.68634796142578	-342.828125	7.0032806396484375	-27.249664306640625	-425.5775146484375	-35.11959457397461	16.417062759399414	75.1411361694336	-0.0	-0.0	-0.0	87250.1640625	-38366.89453125	-6293.97509765625
0.301	-0.0	-0.0	-0.0	5.540655612945557	20.884286880493164	-343.2188720703125	6.358142852783203	-27.46322631835937	-426.1109924316406	-35.326637268066406	16.00507926940918	76.34136962890625	-0.0	-0.0	-0.0	87574.328125	-38607.6015625	-6334.9169921875
0.3015	-0.0	-0.0	-0.0	6.1038312911987305	20.76266098022461	-342.99383544921875	6.387176513671875	-27.44048118591309	-428.0973815917969	-35.29369354248047	16.057239532470703	75.27010345458984	-0.0	-0.0	-0.0	88245.3515625	-38764.3125	-6392.638671875
0.302	-0.0	-0.0	-0.0	5.221139907836914	19.69781875610352	-342.0455627441406	5.845536231994629	-27.24490737915039	-429.8425598144531	-35.54829788208008	16.199138641357422	76.3051528930664	-0.0	-0.0	-0.0	88597.015625	-39182.87109375	-6291.5390625
0.3025	-0.0	-0.0	-0.0	5.676348209381104	19.83839607238769	-341.2484130859375	6.387176513671875	-27.20307922363281	-431.0003356933594	-35.199649810791016	16.408092498779297	78.29779815673828	-0.0	-0.0	-0.0	88828.2421875	-39412.88671875	-6206.79638671875
0.303	-0.0	-0.0	-0.0	4.957957744598389	19.52858161926269	-341.0220642089844	6.484996795654297	-27.412546157836918	-432.7644653320313	-35.41666412353516	16.370004653930664	75.28795623779297	-0.0	-0.0	-0.0	89004.3203125	-39615.140625	-6186.54150390625
0.3035	-0.0	-0.0	-0.0	4.353553771972656	19.566341400146484	-340.0771484375	6.699903964996338	-27.379722595214844	-433.8297119140625	-35.242271423339844	16.288896560668945	74.95398712158203	-0.0	-0.0	-0.0	89722.6953125	-39713.40234375	-6117.47509765625
0.304	-0.0	-0.0	-0.0	4.596527576446533	19.74456787109375	-341.49041748046875	6.9527668952941895	-27.20747184753418	-434.4931640625	-35.32749557495117	16.237356185913086	76.1566162109375	-0.0	-0.0	-0.0	89446.3125	-39934.875	-6056.380859375
0.3045	-0.0	-0.0	-0.0	4.205805778503418	19.74883460998535	-342.4164733886719	6.775515556335449	-27.50571823120117	-436.0732727050781	-35.42132568359375	16.010339736938477	76.1400146484375	-0.0	-0.0	-0.0	89932.59375	-40357.1796875	-5902.40625
